<svg xmlns="http://www.w3.org/2000/svg" viewBox="0 0 128 128" role="img" aria-label="Prompt Engineering logo"><g transform="translate(21 18) scale(.86)" fill="none" stroke="#f4efe2" stroke-width="7" stroke-linecap="round" stroke-linejoin="round"><path d="M50 6c12 0 21 9 21 21v4l4 2c11 6 15 20 9 31-4 8-12 13-21 13h-4l-2 4c-6 11-20 15-31 9-8-4-13-12-13-21v-4l-4-2C-2 57-6 43 0 32c4-8 12-13 21-13h4l2-4C32 9 40 6 50 6Z"/><path d="M25 19l36 21v41"/><path d="M71 31L35 52 0 32"/><path d="M63 77L27 56 27 15"/><path d="M13 65l36-21 35 20"/></g></svg>